<mxfile host="app.diagrams.net" modified="2024-06-21T18:04:33.998Z" agent="Mozilla/5.0 (Windows NT 10.0; Win64; x64) AppleWebKit/537.36 (KHTML, like Gecko) Chrome/126.0.0.0 Safari/537.36" etag="SOpP9vhnWey0izrIM66a" version="24.6.1" type="device">
  <diagram name="Страница — 1" id="kzI8ieXDF1DrYtMRn-V3">
    <mxGraphModel dx="2501" dy="780" grid="1" gridSize="10" guides="1" tooltips="1" connect="1" arrows="1" fold="1" page="1" pageScale="1" pageWidth="827" pageHeight="1169" math="0" shadow="0">
      <root>
        <mxCell id="0" />
        <mxCell id="1" parent="0" />
        <mxCell id="eqEhEbBqn4BWb5pRyuKo-1" value="&lt;b&gt;Список покупок&lt;/b&gt;" style="rounded=1;whiteSpace=wrap;html=1;" parent="1" vertex="1">
          <mxGeometry x="320" y="140" width="194" height="60" as="geometry" />
        </mxCell>
        <mxCell id="eqEhEbBqn4BWb5pRyuKo-2" value="&lt;b&gt;Дизайн программной системы&lt;/b&gt;" style="rounded=1;whiteSpace=wrap;html=1;" parent="1" vertex="1">
          <mxGeometry x="150" y="240" width="170" height="60" as="geometry" />
        </mxCell>
        <mxCell id="eqEhEbBqn4BWb5pRyuKo-3" value="&lt;b&gt;Сбор и анализ требований&lt;/b&gt;" style="rounded=1;whiteSpace=wrap;html=1;" parent="1" vertex="1">
          <mxGeometry x="-82" y="240" width="160" height="60" as="geometry" />
        </mxCell>
        <mxCell id="eqEhEbBqn4BWb5pRyuKo-4" value="&lt;b&gt;Тестирование&lt;/b&gt;" style="rounded=1;whiteSpace=wrap;html=1;" parent="1" vertex="1">
          <mxGeometry x="760" y="240" width="170" height="60" as="geometry" />
        </mxCell>
        <mxCell id="eqEhEbBqn4BWb5pRyuKo-5" value="&lt;b&gt;Реализация&lt;/b&gt;" style="rounded=1;whiteSpace=wrap;html=1;" parent="1" vertex="1">
          <mxGeometry x="520" y="240" width="170" height="60" as="geometry" />
        </mxCell>
        <mxCell id="eqEhEbBqn4BWb5pRyuKo-6" value="" style="endArrow=classic;html=1;rounded=0;exitX=0;exitY=0.5;exitDx=0;exitDy=0;exitPerimeter=0;entryX=0.5;entryY=0;entryDx=0;entryDy=0;" parent="1" source="eqEhEbBqn4BWb5pRyuKo-1" target="eqEhEbBqn4BWb5pRyuKo-3" edge="1">
          <mxGeometry width="50" height="50" relative="1" as="geometry">
            <mxPoint x="310" y="170" as="sourcePoint" />
            <mxPoint y="170" as="targetPoint" />
            <Array as="points">
              <mxPoint x="-2" y="170" />
            </Array>
          </mxGeometry>
        </mxCell>
        <mxCell id="eqEhEbBqn4BWb5pRyuKo-7" value="" style="endArrow=classic;html=1;rounded=0;entryX=0.547;entryY=-0.067;entryDx=0;entryDy=0;entryPerimeter=0;" parent="1" target="eqEhEbBqn4BWb5pRyuKo-2" edge="1">
          <mxGeometry width="50" height="50" relative="1" as="geometry">
            <mxPoint x="243" y="170" as="sourcePoint" />
            <mxPoint x="40" y="180" as="targetPoint" />
          </mxGeometry>
        </mxCell>
        <mxCell id="eqEhEbBqn4BWb5pRyuKo-8" value="" style="endArrow=classic;html=1;rounded=0;exitX=1;exitY=0.5;exitDx=0;exitDy=0;entryX=0.565;entryY=-0.033;entryDx=0;entryDy=0;entryPerimeter=0;" parent="1" source="eqEhEbBqn4BWb5pRyuKo-1" target="eqEhEbBqn4BWb5pRyuKo-4" edge="1">
          <mxGeometry width="50" height="50" relative="1" as="geometry">
            <mxPoint x="570" y="430" as="sourcePoint" />
            <mxPoint x="620" y="380" as="targetPoint" />
            <Array as="points">
              <mxPoint x="856" y="170" />
            </Array>
          </mxGeometry>
        </mxCell>
        <mxCell id="eqEhEbBqn4BWb5pRyuKo-9" value="" style="endArrow=classic;html=1;rounded=0;" parent="1" edge="1">
          <mxGeometry width="50" height="50" relative="1" as="geometry">
            <mxPoint x="600" y="170" as="sourcePoint" />
            <mxPoint x="600" y="240" as="targetPoint" />
          </mxGeometry>
        </mxCell>
        <mxCell id="eqEhEbBqn4BWb5pRyuKo-10" value="&lt;b&gt;Описание продукта&lt;/b&gt;" style="rounded=1;whiteSpace=wrap;html=1;" parent="1" vertex="1">
          <mxGeometry x="-82" y="330" width="162" height="60" as="geometry" />
        </mxCell>
        <mxCell id="eqEhEbBqn4BWb5pRyuKo-11" value="&lt;b&gt;Описание требований&lt;/b&gt;" style="rounded=1;whiteSpace=wrap;html=1;" parent="1" vertex="1">
          <mxGeometry x="-82" y="420" width="162" height="60" as="geometry" />
        </mxCell>
        <mxCell id="eqEhEbBqn4BWb5pRyuKo-13" value="&lt;b&gt;Описание команды&lt;/b&gt;" style="rounded=1;whiteSpace=wrap;html=1;" parent="1" vertex="1">
          <mxGeometry x="-82" y="510" width="162" height="60" as="geometry" />
        </mxCell>
        <mxCell id="eqEhEbBqn4BWb5pRyuKo-14" value="&lt;b&gt;Описание модели разработки ПО&lt;/b&gt;" style="rounded=1;whiteSpace=wrap;html=1;" parent="1" vertex="1">
          <mxGeometry x="-82" y="600" width="162" height="60" as="geometry" />
        </mxCell>
        <mxCell id="eqEhEbBqn4BWb5pRyuKo-15" value="&lt;b&gt;Описание сути проекта&lt;/b&gt;" style="rounded=1;whiteSpace=wrap;html=1;" parent="1" vertex="1">
          <mxGeometry x="-82" y="690" width="162" height="60" as="geometry" />
        </mxCell>
        <mxCell id="eqEhEbBqn4BWb5pRyuKo-16" value="&lt;b&gt;SDP&lt;/b&gt;" style="rounded=1;whiteSpace=wrap;html=1;" parent="1" vertex="1">
          <mxGeometry x="-82" y="780" width="162" height="60" as="geometry" />
        </mxCell>
        <mxCell id="eqEhEbBqn4BWb5pRyuKo-17" value="&lt;b&gt;Контроль версий&lt;/b&gt;" style="rounded=1;whiteSpace=wrap;html=1;" parent="1" vertex="1">
          <mxGeometry x="-84" y="870" width="162" height="60" as="geometry" />
        </mxCell>
        <mxCell id="eqEhEbBqn4BWb5pRyuKo-18" value="&lt;b&gt;Используемые&amp;nbsp;&lt;/b&gt;&lt;div&gt;&lt;b&gt;инструменты&lt;/b&gt;&lt;/div&gt;" style="rounded=1;whiteSpace=wrap;html=1;" parent="1" vertex="1">
          <mxGeometry x="-84" y="960" width="162" height="60" as="geometry" />
        </mxCell>
        <mxCell id="eqEhEbBqn4BWb5pRyuKo-19" value="&lt;b&gt;Макеты экранных&lt;/b&gt;&lt;div&gt;&lt;b&gt;форм&lt;/b&gt;&lt;/div&gt;" style="rounded=1;whiteSpace=wrap;html=1;" parent="1" vertex="1">
          <mxGeometry x="-82" y="1050" width="162" height="60" as="geometry" />
        </mxCell>
        <mxCell id="eqEhEbBqn4BWb5pRyuKo-20" value="&lt;b&gt;Диаграмма вариантов&lt;/b&gt;&lt;div&gt;&lt;b&gt;использования&lt;/b&gt;&lt;/div&gt;" style="rounded=1;whiteSpace=wrap;html=1;" parent="1" vertex="1">
          <mxGeometry x="150" y="330" width="162" height="60" as="geometry" />
        </mxCell>
        <mxCell id="eqEhEbBqn4BWb5pRyuKo-21" value="&lt;b&gt;Диаграмма классов&lt;/b&gt;" style="rounded=1;whiteSpace=wrap;html=1;" parent="1" vertex="1">
          <mxGeometry x="154" y="420" width="162" height="60" as="geometry" />
        </mxCell>
        <mxCell id="eqEhEbBqn4BWb5pRyuKo-22" value="&lt;b&gt;Определение связей между классами и взаимодействие&lt;/b&gt;" style="rounded=1;whiteSpace=wrap;html=1;" parent="1" vertex="1">
          <mxGeometry x="154" y="510" width="162" height="60" as="geometry" />
        </mxCell>
        <mxCell id="eqEhEbBqn4BWb5pRyuKo-23" value="&lt;b&gt;Разработка GUI&lt;/b&gt;" style="rounded=1;whiteSpace=wrap;html=1;" parent="1" vertex="1">
          <mxGeometry x="524" y="330" width="162" height="60" as="geometry" />
        </mxCell>
        <mxCell id="eqEhEbBqn4BWb5pRyuKo-24" value="&lt;b&gt;Разработка логики&lt;/b&gt;" style="rounded=1;whiteSpace=wrap;html=1;" parent="1" vertex="1">
          <mxGeometry x="524" y="420" width="162" height="60" as="geometry" />
        </mxCell>
        <mxCell id="eqEhEbBqn4BWb5pRyuKo-25" value="&lt;b&gt;Сборка ПО&lt;/b&gt;" style="rounded=1;whiteSpace=wrap;html=1;" parent="1" vertex="1">
          <mxGeometry x="528" y="510" width="162" height="60" as="geometry" />
        </mxCell>
        <mxCell id="eqEhEbBqn4BWb5pRyuKo-26" value="&lt;b&gt;Составление плана&amp;nbsp;&lt;/b&gt;&lt;div&gt;&lt;b&gt;тестирования&lt;/b&gt;&lt;/div&gt;" style="rounded=1;whiteSpace=wrap;html=1;" parent="1" vertex="1">
          <mxGeometry x="760" y="330" width="162" height="60" as="geometry" />
        </mxCell>
        <mxCell id="eqEhEbBqn4BWb5pRyuKo-27" value="&lt;b&gt;Модульное тестирование&lt;/b&gt;" style="rounded=1;whiteSpace=wrap;html=1;" parent="1" vertex="1">
          <mxGeometry x="764" y="420" width="162" height="60" as="geometry" />
        </mxCell>
      </root>
    </mxGraphModel>
  </diagram>
</mxfile>
